<svg id="Layer_1" height="512" viewBox="0 0 75 75" width="512" xmlns="http://www.w3.org/2000/svg" data-name="Layer 1"><path d="m47.869 13.499h-29.534v48h38.33v-39.205z" fill="#ededed"/><path d="m51.583 20.131 2.16 2.16v39.21h2.92v-39.21l-2.16-2.16z" fill="#dbd8dd"/><circle cx="28.994" cy="42.043" fill="#71afdf" r="2.981"/><path d="m28.994 45.773a3.731 3.731 0 1 1 3.731-3.731 3.735 3.735 0 0 1 -3.731 3.731zm0-5.961a2.231 2.231 0 1 0 2.231 2.23 2.234 2.234 0 0 0 -2.231-2.23z" fill="#556065"/><circle cx="45.006" cy="35.499" fill="#71afdf" r="2.981"/><path d="m45.006 39.23a3.731 3.731 0 1 1 3.731-3.73 3.736 3.736 0 0 1 -3.731 3.73zm0-5.962a2.231 2.231 0 1 0 2.231 2.232 2.234 2.234 0 0 0 -2.231-2.232z" fill="#556065"/><circle cx="45.006" cy="48.586" fill="#71afdf" r="2.981"/><g fill="#556065"><path d="m45.006 52.317a3.731 3.731 0 1 1 3.731-3.731 3.735 3.735 0 0 1 -3.731 3.731zm0-5.962a2.231 2.231 0 1 0 2.231 2.231 2.234 2.234 0 0 0 -2.231-2.231z"/><path d="m31.976 41.232a.75.75 0 0 1 -.283-1.445l10.189-4.131a.749.749 0 1 1 .563 1.389l-10.188 4.132a.755.755 0 0 1 -.281.055z"/><path d="m42.163 48.484a.732.732 0 0 1 -.281-.055l-10.189-4.129a.75.75 0 1 1 .564-1.39l10.188 4.13a.749.749 0 0 1 -.282 1.444z"/></g><path d="m47.869 22.294h8.796l-8.796-8.795z" fill="#dbd8dd"/><path d="m56.665 23.044h-8.8a.75.75 0 0 1 -.75-.75v-8.794a.75.75 0 0 1 1.28-.531l8.8 8.8a.75.75 0 0 1 -.53 1.28zm-8.045-1.5h6.234l-6.234-6.235z" fill="#556065"/><path d="m56.665 62.249h-38.33a.75.75 0 0 1 -.75-.75v-48a.75.75 0 0 1 .75-.75h29.535a.754.754 0 0 1 .53.219l8.8 8.8a.751.751 0 0 1 .22.53v39.202a.75.75 0 0 1 -.755.749zm-37.58-1.5h36.83v-38.149l-8.356-8.355h-28.474z" fill="#556065"/></svg>