<?xml version="1.0" encoding="iso-8859-1"?>
<!-- Generator: Adobe Illustrator 19.0.0, SVG Export Plug-In . SVG Version: 6.00 Build 0)  -->
<svg version="1.1" id="Layer_1" xmlns="http://www.w3.org/2000/svg" xmlns:xlink="http://www.w3.org/1999/xlink" x="0px" y="0px"
	 viewBox="0 0 512 512" style="enable-background:new 0 0 512 512;" xml:space="preserve">
<g>
	<g>
		<path d="M0,0v512h512V0H0z M292.416,399.083l-85.312,85.312c-1.984,1.984-4.331,3.541-6.955,4.629
			c-5.205,2.155-11.093,2.155-16.299,0c-2.624-1.088-4.971-2.645-6.955-4.629l-85.312-85.312c-8.341-8.341-8.341-21.824,0-30.165
			s21.824-8.341,30.165,0l48.917,48.917V192c0-11.797,9.557-21.333,21.333-21.333s21.333,9.536,21.333,21.333v225.835l48.917-48.917
			c8.341-8.341,21.824-8.341,30.165,0c4.16,4.16,6.251,9.621,6.251,15.083C298.667,389.461,296.576,394.923,292.416,399.083z
			 M341.333,320c0,11.797-9.557,21.333-21.333,21.333s-21.333-9.536-21.333-21.333v-42.667c0-11.797,9.557-21.333,21.333-21.333
			s21.333,9.536,21.333,21.333V320z M341.333,192c0,11.797-9.557,21.333-21.333,21.333s-21.333-9.536-21.333-21.333v-42.667
			c0-11.797,9.557-21.333,21.333-21.333s21.333,9.536,21.333,21.333V192z M420.416,143.083c-8.341,8.341-21.824,8.341-30.165,0
			L339.84,92.672c-3.008,8.149-10.667,13.995-19.84,13.995c-9.173,0-16.832-5.845-19.84-13.995l-50.411,50.411
			c-8.341,8.341-21.824,8.341-30.165,0c-8.341-8.341-8.341-21.824,0-30.165l85.312-85.312c1.984-1.984,4.331-3.541,6.955-4.629
			c5.205-2.155,11.093-2.155,16.299,0c2.624,1.088,4.971,2.645,6.955,4.629l85.312,85.312c4.16,4.16,6.251,9.621,6.251,15.083
			C426.667,133.461,424.576,138.923,420.416,143.083z"/>
	</g>
</g>
<g>
</g>
<g>
</g>
<g>
</g>
<g>
</g>
<g>
</g>
<g>
</g>
<g>
</g>
<g>
</g>
<g>
</g>
<g>
</g>
<g>
</g>
<g>
</g>
<g>
</g>
<g>
</g>
<g>
</g>
</svg>
